<svg width="427" height="522" viewBox="0 0 427 522" fill="none" xmlns="http://www.w3.org/2000/svg">
<path d="M427 291.552C427 431.359 333.62 522 214.331 522C95.0415 522 0 431.359 0 291.552C0 151.744 95.0415 0 214.331 0C333.62 0 427 151.744 427 291.552Z" fill="#FF696A"/>
<path d="M115.112 427.287C97.8954 455.033 115.112 427.287 96.1925 458.997C79.7959 440.5 92.4087 455.033 70.9668 431.251C59.6154 416.189 73.4894 396.663 92.4087 424.644C101.238 395.341 126.11 409.562 115.112 427.287Z" fill="#C63A39"/>
<path d="M147.397 459.67C133.624 480.964 147.397 459.67 132.262 484.006C119.144 469.81 129.234 480.964 112.081 462.712C103 451.153 114.099 436.168 129.234 457.642C136.298 435.153 156.195 446.067 147.397 459.67Z" fill="#C63A39"/>
<path d="M59.8222 185.962C67.7904 170.011 85.1474 161.031 102.771 163.741L108.352 164.6C120.411 166.455 132.67 162.828 141.779 154.71L152.446 145.205C161.55 137.092 175.239 136.923 184.54 144.809V144.809C194.159 152.965 208.402 152.471 217.433 143.67L219.083 142.062C227.675 133.688 240.763 131.99 251.208 137.894L271.714 149.485C279.157 153.692 287.987 154.704 296.189 152.289V152.289C309.581 148.347 323.973 153.659 331.593 165.356L346.625 188.433C347.952 190.471 349.108 192.615 350.081 194.844L364.395 227.63C368.186 236.313 369.073 245.988 366.924 255.215L362.764 273.081C360.755 281.705 361.395 290.735 364.601 298.99L374.247 323.827C375.586 327.274 376.272 330.939 376.272 334.636V335.193C376.272 349.168 366.365 361.182 352.645 363.843V363.843C343.822 365.554 336.279 371.236 332.199 379.244L326.68 390.075C318.12 406.874 299.23 415.695 280.855 411.473V411.473C271.736 409.378 262.176 410.456 253.753 414.531L244.911 418.808C233.059 424.542 219.082 423.714 207.99 416.624V416.624C199.583 411.25 189.396 409.407 179.64 411.496L166.106 414.394C154.197 416.944 141.983 411.647 135.705 401.21V401.21C130.548 392.638 121.276 387.395 111.273 387.395H107.268C88.4499 387.395 73.1947 372.14 73.1947 353.322V353.322C73.1947 340.366 65.8474 328.531 54.2364 322.784L50.7354 321.051C28.3476 309.97 21.2977 281.42 35.9539 261.191L47.1276 245.769C52.5676 238.261 55.4967 229.226 55.4967 219.954V204.3C55.4967 197.935 56.9776 191.657 59.8222 185.962V185.962Z" fill="#FFA2B7"/>
<path d="M151.469 67.0717L148.672 68.5103C136.614 74.7119 126.139 83.8689 118.142 95.1996L113.58 101.662" stroke="#E5AAAA" stroke-width="5" stroke-linecap="round"/>
<path d="M397.354 250.447L394.79 226.154C393.889 217.615 391.717 209.29 388.348 201.462L375.939 172.629" stroke="#D24141" stroke-width="5" stroke-linecap="round"/>
<path d="M275.161 488.193L295.244 478.535C303.38 474.621 310.885 469.383 317.471 463.018L338.775 442.434" stroke="#D24141" stroke-width="5" stroke-linecap="round"/>
<path d="M275.426 467.849V467.849C291.224 463.307 305.247 453.505 315.338 439.95L318.346 435.908" stroke="#D24141" stroke-width="5" stroke-linecap="round"/>
<path d="M191.307 34.3222L181.705 35.4432C165.981 37.279 150.884 43.0903 137.711 52.3774L128.266 59.036C122.891 62.8253 117.883 67.1608 113.315 71.9789L97.8376 88.3041C89.0097 97.6154 81.9489 108.599 77.0368 120.66L65.5251 148.926" stroke="#E5AAAA" stroke-width="5" stroke-linecap="round"/>
</svg>
